<?xml version="1.0" encoding="UTF-8" standalone="no"?>
<!-- Created with Inkscape (http://www.inkscape.org/) -->

<svg
   width="39.6875mm"
   height="39.6875mm"
   viewBox="0 0 39.6875 39.6875"
   version="1.1"
   id="svg1"
   xml:space="preserve"
   sodipodi:docname="tsjirp-logo.svg"
   inkscape:version="1.3.2 (091e20e, 2023-11-25)"
   xmlns:inkscape="http://www.inkscape.org/namespaces/inkscape"
   xmlns:sodipodi="http://sodipodi.sourceforge.net/DTD/sodipodi-0.dtd"
   xmlns="http://www.w3.org/2000/svg"
   xmlns:svg="http://www.w3.org/2000/svg"><sodipodi:namedview
     id="namedview1"
     pagecolor="#ffffff"
     bordercolor="#000000"
     borderopacity="0.25"
     inkscape:showpageshadow="2"
     inkscape:pageopacity="0.0"
     inkscape:pagecheckerboard="0"
     inkscape:deskcolor="#d1d1d1"
     inkscape:document-units="mm"
     inkscape:zoom="5.0686481"
     inkscape:cx="58.595506"
     inkscape:cy="63.922371"
     inkscape:window-width="1584"
     inkscape:window-height="1027"
     inkscape:window-x="49"
     inkscape:window-y="25"
     inkscape:window-maximized="0"
     inkscape:current-layer="layer1"
     showguides="true" /><defs
     id="defs1"><inkscape:path-effect
       effect="bspline"
       id="path-effect7"
       is_visible="true"
       lpeversion="1.3"
       weight="33.333333"
       steps="2"
       helper_size="0"
       apply_no_weight="true"
       apply_with_weight="true"
       only_selected="false"
       uniform="false" /><inkscape:path-effect
       effect="bspline"
       id="path-effect6"
       is_visible="true"
       lpeversion="1.3"
       weight="33.333333"
       steps="2"
       helper_size="0"
       apply_no_weight="true"
       apply_with_weight="true"
       only_selected="false"
       uniform="false" /><inkscape:path-effect
       effect="bspline"
       id="path-effect5"
       is_visible="true"
       lpeversion="1.3"
       weight="33.333333"
       steps="2"
       helper_size="0"
       apply_no_weight="true"
       apply_with_weight="true"
       only_selected="false"
       uniform="false" /><inkscape:path-effect
       effect="bspline"
       id="path-effect4"
       is_visible="true"
       lpeversion="1.3"
       weight="33.333333"
       steps="2"
       helper_size="0"
       apply_no_weight="true"
       apply_with_weight="true"
       only_selected="false"
       uniform="false" /><inkscape:path-effect
       effect="bspline"
       id="path-effect3"
       is_visible="true"
       lpeversion="1.3"
       weight="33.333333"
       steps="2"
       helper_size="0"
       apply_no_weight="true"
       apply_with_weight="true"
       only_selected="false"
       uniform="false" /><inkscape:path-effect
       effect="bspline"
       id="path-effect2"
       is_visible="true"
       lpeversion="1.3"
       weight="33.333333"
       steps="2"
       helper_size="0"
       apply_no_weight="true"
       apply_with_weight="true"
       only_selected="false"
       uniform="false" /><inkscape:path-effect
       effect="bspline"
       id="path-effect1"
       is_visible="true"
       lpeversion="1.3"
       weight="33.333333"
       steps="2"
       helper_size="0"
       apply_no_weight="true"
       apply_with_weight="true"
       only_selected="false"
       uniform="false" /></defs><g
     inkscape:label="vogel"
     inkscape:groupmode="layer"
     id="layer1"
     transform="translate(-85.195831,-128.58749)"><path
       id="path1"
       style="opacity:1;fill:#1a1a1a;stroke:none;stroke-width:0.264583"
       inkscape:label="lichaam"
       d="M 115.23431 133.73498 C 115.18385 133.75775 115.15028 133.83111 115.10718 133.97321 C 115.06407 134.11531 115.01169 134.32617 114.95319 134.61865 C 114.8947 134.91112 114.83046 135.28537 114.73976 135.64804 C 114.64909 136.01072 114.53189 136.36176 114.41782 136.70689 C 114.30375 137.05202 114.19255 137.39132 114.08141 137.7306 C 113.98197 137.59021 113.88264 137.44994 113.74809 137.25104 C 113.61354 137.05214 113.44381 136.79446 113.2303 136.55755 C 113.01679 136.32063 112.75938 136.10446 112.49907 135.91728 C 112.23876 135.7301 111.97552 135.57227 111.76785 135.4465 C 111.56019 135.32073 111.40836 135.22717 111.12758 135.18037 C 110.8468 135.13357 110.43704 135.13321 110.03049 135.14781 C 109.62394 135.16251 109.22049 135.19165 108.88121 135.24135 C 108.54193 135.29107 108.2668 135.36123 107.8544 135.4987 C 107.442 135.63616 106.89229 135.84095 106.40384 136.11881 C 105.9154 136.39667 105.4885 136.74801 105.10676 137.10118 C 104.72503 137.45436 104.38845 137.80975 104.0908 138.19982 C 103.79316 138.5899 103.53466 139.01433 103.2924 139.50879 C 103.05015 140.00326 102.82426 140.56736 102.65833 141.0751 C 102.49241 141.58284 102.38611 142.03449 102.30641 142.43936 C 102.22679 142.84422 102.17373 143.20235 102.14053 143.64704 C 102.10733 144.09172 102.09482 144.62265 102.08782 145.1503 C 102.08082 145.67795 102.08059 146.20262 102.08059 146.72695 C 101.90803 146.38182 101.7356 146.03664 101.5199 145.55545 C 101.30419 145.07426 101.04495 144.45705 100.72305 143.7137 C 100.40115 142.97034 100.01656 142.10087 99.671433 141.40066 C 99.326305 140.70044 99.020856 140.16951 98.768646 139.74805 C 98.516437 139.3266 98.317183 139.0145 98.052411 138.64217 C 97.787638 138.26984 97.362611 137.71334 96.811143 137.11617 C 96.259673 136.51898 96.073801 136.52536 95.931093 136.55186 C 95.788386 136.57841 95.688887 136.62499 95.615867 136.69139 C 95.542847 136.75777 95.496738 136.84392 95.516648 137.14924 C 95.536556 137.45455 95.622463 137.9788 95.718703 138.54295 C 95.814941 139.1071 95.921479 139.71151 96.044264 140.33871 C 96.16705 140.96592 96.30644 141.61614 96.405999 142.16702 C 96.505556 142.7179 96.564965 143.16913 96.627175 144.69193 C 96.68939 146.21472 96.758134 148.95484 96.764634 150.4027 C 96.771129 151.85054 96.717842 152.09588 96.588417 152.41446 C 96.458993 152.73305 96.253422 153.12491 95.987937 153.45677 C 95.722451 153.78863 95.397201 154.06049 95.115122 154.26293 C 94.833042 154.46536 94.594005 154.59817 94.109499 154.67117 C 93.624991 154.74417 92.895021 154.7574 92.463604 154.7275 C 92.032188 154.69763 91.899213 154.62468 91.68019 154.49857 C 91.461168 154.37247 91.15614 154.19351 90.897292 154.0309 C 90.638444 153.86829 90.426065 153.72212 90.134031 153.46659 C 89.841998 153.21106 89.470212 152.84602 89.191453 152.55399 C 88.912692 152.26195 88.726872 152.0432 88.577537 151.83413 C 88.428201 151.62506 88.315488 151.4255 88.269028 151.05382 C 88.222538 150.68214 88.24204 150.13804 88.27523 149.79291 C 88.308413 149.44777 88.35486 149.30187 88.40132 149.18572 C 88.44778 149.06957 88.494425 148.9832 88.587355 148.81726 C 88.680279 148.65132 88.819908 148.40562 88.969244 148.18991 C 89.118581 147.9742 89.277786 147.78871 89.450352 147.60287 C 89.622917 147.41703 89.808801 147.23095 89.984686 147.09489 C 90.160571 146.95883 90.326428 146.87267 90.552093 146.82617 C 90.777757 146.77967 91.063245 146.77293 91.345326 146.81273 C 91.627407 146.85255 91.905767 146.93895 92.161297 147.0551 C 92.416827 147.17125 92.649396 147.31749 92.841876 147.47678 C 93.034355 147.63608 93.186875 147.80863 93.276475 147.9646 C 93.366071 148.12057 93.392747 148.25968 93.392747 148.47206 C 93.392757 148.68445 93.365826 148.9698 93.319366 149.18882 C 93.272907 149.40785 93.206751 149.56052 93.103875 149.6999 C 93.001001 149.83928 92.861801 149.96547 92.715785 150.06835 C 92.56977 150.17122 92.416921 150.25108 92.19127 150.29418 C 91.965618 150.33728 91.666812 150.34403 91.437827 150.31743 C 91.208842 150.29088 91.049552 150.23081 90.950002 150.14121 C 90.850452 150.05161 90.810874 149.93254 90.804274 149.81307 C 90.797634 149.6936 90.824257 149.57398 90.874037 149.46115 C 90.923814 149.34832 90.996672 149.24212 91.072992 149.14593 C 91.149317 149.04969 91.228937 148.96346 91.262127 148.85395 C 91.295317 148.74443 91.282232 148.61155 91.235772 148.50204 C 91.189313 148.39253 91.109233 148.30626 91.029583 148.24986 C 90.949938 148.19346 90.870648 148.16684 90.741229 148.15684 C 90.611809 148.14684 90.432745 148.15375 90.30663 148.20025 C 90.180516 148.24671 90.107525 148.3328 90.031195 148.43899 C 89.954865 148.54519 89.875225 148.67144 89.818805 148.79091 C 89.762389 148.91038 89.729161 149.02308 89.709251 149.16246 C 89.689381 149.30184 89.682578 149.46749 89.679278 149.66992 C 89.675958 149.87235 89.675685 150.11163 89.698915 150.27092 C 89.722146 150.43022 89.768542 150.50965 89.841542 150.6125 C 89.914539 150.71536 90.014424 150.84163 90.143849 150.96442 C 90.273275 151.08721 90.432536 151.2067 90.608421 151.3029 C 90.784304 151.39914 90.976534 151.47227 91.351528 151.50547 C 91.726521 151.53857 92.284127 151.53164 92.695632 151.49514 C 93.107136 151.45864 93.372891 151.3923 93.5886 151.306 C 93.80431 151.21972 93.969787 151.11386 94.145672 150.99439 C 94.321556 150.87492 94.507635 150.74184 94.653652 150.60578 C 94.799667 150.46972 94.90593 150.33064 94.99885 150.18462 C 95.091772 150.0386 95.17142 149.8857 95.21124 149.73969 C 95.25106 149.59367 95.251031 149.45432 95.251031 149.27512 C 95.251031 149.09592 95.251085 148.87693 95.234495 148.68445 C 95.217895 148.49198 95.184486 148.32633 95.151296 148.17699 C 95.118112 148.02766 95.084882 147.8949 95.041742 147.75221 C 94.998601 147.60951 94.945472 147.45677 94.869142 147.32071 C 94.792816 147.18465 94.693267 147.06487 94.593707 146.95536 C 94.49415 146.84585 94.394536 146.74631 94.271763 146.64013 C 94.148989 146.53395 94.003093 146.42147 93.837164 146.28874 C 93.671235 146.15599 93.485705 146.00333 93.289911 145.86395 C 93.094116 145.72457 92.888026 145.59837 92.688914 145.4955 C 92.489801 145.39262 92.297312 145.31264 92.114789 145.25624 C 91.932265 145.19984 91.759636 145.16679 91.5572 145.14359 C 91.354764 145.12069 91.122492 145.10661 90.880239 145.11361 C 90.637984 145.12021 90.386208 145.14693 90.173822 145.20663 C 89.961435 145.26636 89.788813 145.35908 89.702533 145.40558 C 89.616256 145.45201 89.616468 145.4523 89.447251 145.5508 C 89.278035 145.64936 88.939605 145.84613 88.651434 146.06859 C 88.363263 146.29106 88.125372 146.53888 87.907293 146.79413 C 87.689216 147.04938 87.490928 147.31222 87.312498 147.62199 C 87.134068 147.93177 86.975454 148.28873 86.851544 148.64311 C 86.727635 148.99749 86.638484 149.34926 86.586444 149.7309 C 86.534404 150.11254 86.519509 150.52392 86.561639 150.96752 C 86.603767 151.41111 86.702701 151.88685 86.799351 152.22636 C 86.896 152.56587 86.990372 152.76925 87.240667 153.09142 C 87.490962 153.41358 87.897136 153.85421 88.31347 154.23089 C 88.729805 154.60758 89.156033 154.92027 89.63432 155.16313 C 90.112606 155.40599 90.643034 155.57915 91.079193 155.71297 C 91.515352 155.84679 91.85738 155.94097 92.462054 156.00287 C 93.06673 156.06477 93.934312 156.09476 94.491904 156.04266 C 95.049496 155.99062 95.297228 155.85694 95.629303 155.6463 C 95.961377 155.43565 96.377699 155.14779 96.732078 154.87271 C 97.086455 154.59764 97.378766 154.33529 97.614194 154.02056 C 97.849622 153.70583 98.027932 153.33896 98.156797 153.01184 C 98.285663 152.68472 98.365102 152.39709 98.414662 152.05014 C 98.464222 151.7032 98.484076 151.29693 98.489076 150.76908 C 98.494026 150.24123 98.484193 149.59199 98.454453 148.91545 C 98.424715 148.23891 98.374838 147.53507 98.321128 146.86183 C 98.267418 146.1886 98.209828 145.546 98.108221 144.82733 C 98.006614 144.10864 97.860987 143.31397 97.751137 142.6812 C 97.641287 142.04843 97.567236 141.57767 97.532546 141.20843 C 97.497866 140.83918 97.502741 140.57173 97.507741 140.30409 C 97.725818 140.5866 97.943887 140.86895 98.161965 141.24563 C 98.380042 141.62231 98.597789 142.09323 99.026511 143.08945 C 99.455234 144.08567 100.09505 145.60685 100.62538 146.8732 C 101.15571 148.13954 101.57671 149.15068 101.98809 150.1469 C 102.39946 151.14313 102.80091 152.12482 103.09086 152.87076 C 103.38081 153.61669 103.5592 154.12706 103.72028 154.50374 C 103.88136 154.88042 104.02534 155.12305 104.19881 155.24943 C 104.37228 155.37584 104.57528 155.38577 104.75123 155.35847 C 104.92718 155.33121 105.07586 155.26688 105.18738 155.18018 C 105.29891 155.09345 105.3735 154.98435 105.3884 154.79106 C 105.40326 154.59778 105.35839 154.32031 105.26179 153.89654 C 105.16514 153.47277 105.01668 152.90288 104.84321 152.21395 C 104.66974 151.52503 104.47148 150.71711 104.27322 149.94639 C 104.07497 149.17568 103.87633 148.44197 103.7549 147.96615 C 103.63347 147.49034 103.5891 147.2722 103.5296 146.898 C 103.47012 146.5238 103.39567 145.99341 103.38077 145.28466 C 103.36589 144.57591 103.41067 143.68898 103.47017 143.10908 C 103.52964 142.52918 103.60369 142.25677 103.7053 141.96187 C 103.8069 141.66696 103.93583 141.34955 104.11922 140.95056 C 104.3026 140.55158 104.54071 140.07114 104.77862 139.63746 C 105.01652 139.20377 105.25416 138.81716 105.4995 138.48508 C 105.74484 138.15301 105.99755 137.8753 106.21315 137.65722 C 106.42875 137.43914 106.60746 137.28067 106.85032 137.13942 C 107.09318 136.99816 107.40041 136.87433 107.67301 136.76529 C 107.94561 136.65625 108.18348 136.562 108.41147 136.4852 C 108.63947 136.40839 108.85769 136.34893 109.14269 136.31673 C 109.42768 136.28493 109.77963 136.27953 110.0894 136.29193 C 110.39918 136.30432 110.66651 136.33372 110.88212 136.39322 C 111.09772 136.4527 111.26137 136.54224 111.41749 136.61904 C 111.57361 136.69586 111.72213 136.76012 111.89808 136.86916 C 112.07402 136.97818 112.27766 137.13182 112.466 137.3053 C 112.65434 137.47877 112.82759 137.67202 112.92179 137.90992 C 113.01597 138.14783 113.03099 138.43016 113.03599 138.83906 C 113.04099 139.24796 113.0358 139.78353 112.9714 140.15526 C 112.90696 140.52699 112.78287 140.73516 112.66392 140.94332 C 112.54497 141.15148 112.43095 141.35959 112.2996 141.53554 C 112.16826 141.71149 112.01975 141.8552 111.92805 141.95928 C 111.83633 142.06337 111.80161 142.12797 111.78181 142.35099 C 111.76201 142.57401 111.75683 142.95535 111.75183 143.33698 C 111.98478 143.36178 112.21804 143.38668 112.52285 143.41398 C 112.82766 143.44129 113.2041 143.4711 113.59565 143.5256 C 113.9872 143.58012 114.3936 143.65947 114.79506 143.80568 C 115.19653 143.95189 115.59319 144.16489 116.07147 144.45732 C 116.54976 144.74974 117.10995 145.12131 117.55355 145.5079 C 117.99714 145.8945 118.32428 146.29614 118.58449 146.70008 C 118.8447 147.10402 119.03774 147.51055 119.19634 147.93928 C 119.35495 148.368 119.47877 148.81883 119.55807 149.72832 C 119.63737 150.6378 119.672 152.00554 119.6175 153.06868 C 119.56298 154.13182 119.41939 154.89042 119.0997 155.71813 C 118.78003 156.54584 118.28466 157.44277 117.83363 158.10197 C 117.3826 158.76116 116.97619 159.18247 116.50038 159.58146 C 116.02457 159.98044 115.47909 160.3572 114.96611 160.66202 C 114.45313 160.96684 113.97242 161.1999 113.58583 161.35603 C 113.19923 161.51215 112.9067 161.591 112.57711 161.648 C 112.24751 161.70502 111.8807 161.73983 111.42472 161.75963 C 110.96873 161.77993 110.42369 161.78511 109.91319 161.75291 C 109.40269 161.7207 108.92703 161.65138 108.41405 161.50021 C 107.90106 161.34904 107.35068 161.11603 106.71131 160.75917 C 106.07194 160.40232 105.34329 159.92124 104.73366 159.43057 C 104.12403 158.93989 103.63363 158.43943 103.35855 158.12471 C 103.08351 157.80998 103.02376 157.68121 102.98906 157.5449 C 102.95436 157.4086 102.94487 157.26506 102.92757 157.08911 C 102.91028 156.91316 102.8852 156.70499 102.8268 156.56201 C 102.76841 156.41903 102.67627 156.34101 102.53069 156.30001 C 102.3851 156.25901 102.18634 156.25456 102.03408 156.28606 C 101.88183 156.31752 101.77653 156.38459 101.70903 156.46279 C 101.64154 156.54095 101.61113 156.63052 101.60413 156.83124 C 101.59673 157.03196 101.61129 157.34423 101.67079 157.61931 C 101.73026 157.89439 101.83437 158.13202 102.02271 158.43683 C 102.21105 158.74164 102.48408 159.11332 102.82111 159.49 C 103.15814 159.86669 103.55955 160.24855 103.98331 160.63515 C 104.40708 161.02175 104.85281 161.41325 105.18789 161.68521 C 105.52296 161.95718 105.74724 162.10933 106.10463 162.28673 C 106.46202 162.46411 106.95285 162.66696 107.39448 162.79884 C 107.83612 162.93072 108.22866 162.99179 108.89723 163.05309 C 109.56581 163.11439 110.51017 163.17597 111.27383 163.16367 C 112.03749 163.15141 112.62022 163.06569 113.02876 162.95025 C 113.4373 162.8348 113.67156 162.68967 114.06074 162.51772 C 114.44993 162.34578 114.99404 162.14702 115.58777 161.86039 C 116.1815 161.57377 116.82482 161.19894 117.46828 160.77777 C 118.11174 160.35659 118.75509 159.889 119.23768 159.36546 C 119.72028 158.84192 120.04211 158.26282 120.33167 157.66323 C 120.62123 157.06365 120.87879 156.44343 121.05721 155.94913 C 121.23562 155.45483 121.33519 155.08616 121.43755 154.68254 C 121.53992 154.27892 121.6452 153.84029 121.6949 153.19684 C 121.7446 152.55338 121.73845 151.70553 121.71505 151.19076 C 121.69166 150.67599 121.65084 150.49454 121.54555 150.09677 C 121.44026 149.69899 121.27077 149.08485 121.10113 148.56715 C 120.93149 148.04946 120.76169 147.62804 120.53941 147.21271 C 120.31712 146.79739 120.04207 146.38782 119.72034 145.99005 C 119.39861 145.59227 119.03008 145.20612 118.72298 144.9312 C 118.41587 144.65626 118.17026 144.49279 117.84345 144.24493 C 117.51665 143.99707 117.10893 143.6652 116.80475 143.44291 C 116.50056 143.22063 116.2998 143.10804 116.09937 142.9954 C 116.36845 142.90181 116.63789 142.80812 116.97425 142.63263 C 117.3106 142.45713 117.71398 142.19986 118.1995 141.8518 C 118.68502 141.50375 119.25246 141.0647 119.65316 140.71957 C 120.05386 140.37444 120.28816 140.12325 120.4929 139.85709 C 120.69764 139.59093 120.87286 139.31004 120.98693 139.05558 C 121.101 138.80113 121.15395 138.57316 121.20655 138.34503 C 120.81463 138.43277 120.42252 138.52015 120.05107 138.61375 C 119.67962 138.70734 119.32844 138.80677 119.03304 138.88867 C 118.73764 138.97057 118.49787 139.03519 118.23464 139.10829 C 117.97141 139.18141 117.68505 139.26293 117.31945 139.36823 C 116.95384 139.47352 116.50932 139.60231 116.06475 139.731 C 116.21194 138.80559 116.35865 137.88024 116.33915 137.07689 C 116.31962 136.27354 116.13369 135.59213 115.99292 135.14626 C 115.85215 134.70039 115.75691 134.49029 115.66891 134.2998 C 115.58091 134.10932 115.50003 133.93857 115.42603 133.83937 C 115.35204 133.73992 115.28471 133.71218 115.23431 133.73498 z M 115.44515 136.50794 L 115.1015 140.93557 L 119.43405 139.61834 L 115.67407 142.6719 L 113.07888 142.34737 C 113.3906 141.86389 113.70197 141.38077 114.09639 140.40744 C 114.49081 139.43411 114.96803 137.97111 115.44515 136.50794 z " /><path
       style="opacity:1;fill:#1a1a1a;stroke:none;stroke-width:0.264583"
       d="m 114.00994,152.67766 c -0.25115,0.0389 -0.75345,0.11679 -0.99615,0.19802 -0.24271,0.0812 -0.22581,0.16581 -0.23851,0.31384 -0.0127,0.14802 -0.055,0.35949 -0.0465,0.60056 0.008,0.24108 0.0677,0.51175 0.093,0.72743 0.0254,0.21569 0.0169,0.37643 0.008,0.53714 -0.21992,-0.11842 -0.43985,-0.23684 -0.65555,-0.42294 -0.2157,-0.18609 -0.42716,-0.43984 -0.64286,-0.76551 -0.2157,-0.32566 -0.43562,-0.72321 -0.6344,-1.17153 -0.19878,-0.44831 -0.37641,-0.94736 -0.4906,-1.42951 -0.11419,-0.48214 -0.16494,-0.94737 -0.18608,-1.42528 -0.0211,-0.47791 -0.0127,-0.96852 -0.0134,-1.38096 -7.5e-4,-0.41244 -0.0107,-0.74669 -0.0519,-0.97664 -0.0412,-0.22995 -0.11368,-0.35556 -0.22775,-0.42205 -0.11407,-0.0665 -0.26979,-0.0739 -0.38084,-0.03 -0.11105,0.0439 -0.1774,0.13888 -0.24378,0.23394 -0.10151,0.32143 -0.20301,0.64286 -0.27491,1.09117 -0.0719,0.44832 -0.1142,1.0235 -0.14803,1.51411 -0.0338,0.49061 -0.0592,0.89661 -0.0211,1.28572 0.0381,0.3891 0.13956,0.76127 0.28336,1.12923 0.1438,0.36796 0.32989,0.73167 0.54982,1.11231 0.21992,0.38065 0.47368,0.7782 0.69361,1.07848 0.21992,0.30029 0.40601,0.50329 0.59633,0.68939 0.19033,0.18609 0.38487,0.35526 0.61326,0.50752 0.22839,0.15225 0.4906,0.28759 0.68938,0.40601 0.19878,0.11842 0.33412,0.21993 0.65133,0.258 0.3172,0.0381 0.81625,0.0127 1.16729,0.0888 0.35103,0.0761 0.55403,0.25377 0.7359,0.42294 0.18186,0.16918 0.34257,0.32989 0.52444,0.42293 0.18186,0.093 0.38486,0.1184 0.6217,0.13109 0.23685,0.0127 0.50753,0.0127 0.71054,-0.055 0.203,-0.0677 0.33834,-0.20301 0.48214,-0.39756 0.1438,-0.19455 0.29605,-0.44831 0.461,-0.76128 0.16494,-0.31298 0.34257,-0.68515 0.47791,-1.05733 0.13534,-0.37218 0.22838,-0.74436 0.27914,-1.22228 0.0508,-0.47792 0.0592,-1.06156 0.0127,-1.57331 -0.0465,-0.51176 -0.14802,-0.9516 -0.24529,-1.35763 -0.0973,-0.40602 -0.19032,-0.77819 -0.33412,-1.17575 -0.14379,-0.39756 -0.33834,-0.82048 -0.57096,-1.24342 -0.23261,-0.42294 -0.50329,-0.84587 -0.76551,-1.20114 -0.26222,-0.35526 -0.51598,-0.64285 -0.76128,-0.85009 -0.2453,-0.20723 -0.48214,-0.33411 -0.81203,-0.40602 -0.3299,-0.0719 -0.75282,-0.0888 -1.00235,-0.0381 -0.24952,0.0507 -0.32566,0.16918 -0.33835,0.28338 -0.0127,0.1142 0.0381,0.22414 0.11841,0.32564 0.0803,0.10149 0.19033,0.19455 0.35951,0.30875 0.16917,0.11419 0.39755,0.24953 0.6344,0.461 0.23684,0.21147 0.48214,0.49906 0.72322,0.84164 0.24107,0.34258 0.47791,0.74013 0.68515,1.16729 0.20723,0.42717 0.38487,0.88393 0.5202,1.36608 0.13534,0.48214 0.22839,0.98966 0.27914,1.50564 0.0508,0.51598 0.0592,1.04042 0.0381,1.48028 -0.0212,0.43986 -0.0719,0.7951 -0.1438,1.10808 -0.0719,0.31299 -0.16494,0.58364 -0.27491,0.80357 -0.10996,0.21993 -0.23684,0.3891 -0.39333,0.45254 -0.15648,0.0634 -0.34257,0.0211 -0.51598,-0.0931 -0.1734,-0.1142 -0.33411,-0.30028 -0.49482,-0.46523 -0.16072,-0.16494 -0.32143,-0.30873 -0.461,-0.57096 -0.13957,-0.26222 -0.25799,-0.64286 -0.31983,-1.06393 -0.0619,-0.42107 -0.0671,-0.87653 -0.0697,-1.10576 -0.003,-0.22923 -0.003,-0.22923 -0.25374,-0.1903 z"
       id="path2"
       sodipodi:nodetypes="cccccccccccccccccccccccccccccccccccccccccccccccccccccccccccc"
       inkscape:label="vleugel" /><path
       id="path3"
       style="opacity:1;fill:#1a1a1a;stroke:none;stroke-width:0.264583"
       inkscape:label="oog"
       d="M 109.12357 137.09291 C 109.07968 137.09311 109.03541 137.09403 108.99128 137.09601 C 108.6382 137.11192 108.28212 137.18195 108.10399 137.21694 C 107.92587 137.25193 107.92569 137.25195 107.82391 137.2774 C 107.72212 137.30285 107.51878 137.35378 107.34383 137.43966 C 107.16889 137.52555 107.02236 137.64649 106.86014 137.80553 C 106.69792 137.96457 106.52018 138.16158 106.37387 138.34607 C 106.22755 138.53055 106.11288 138.70243 106.05244 138.91554 C 105.992 139.12866 105.98546 139.38299 105.99818 139.6788 C 106.0109 139.97462 106.04301 140.31186 106.1098 140.55679 C 106.17659 140.80171 106.27807 140.95445 106.44983 141.14848 C 106.6216 141.34251 106.86359 141.57794 107.09579 141.78152 C 107.32799 141.98509 107.55045 142.15679 107.92261 142.25539 C 108.29477 142.35399 108.81641 142.37963 109.17266 142.35099 C 109.52892 142.32236 109.71955 142.23932 109.93902 142.11845 C 110.1585 141.99758 110.40684 141.83848 110.62632 141.6699 C 110.8458 141.50131 111.0364 141.3235 111.18908 141.14538 C 111.34176 140.96726 111.45631 140.7891 111.53583 140.5728 C 111.61534 140.35653 111.65989 140.102 111.63763 139.81575 C 111.61536 139.52947 111.52637 139.21157 111.34824 138.88712 C 111.17011 138.56267 110.90297 138.23193 110.67076 137.94247 C 110.43856 137.65301 110.24151 137.40452 109.96796 137.26138 C 109.72861 137.13613 109.43081 137.09152 109.12357 137.09291 z M 109.64343 138.498 C 109.65455 138.49801 109.66561 138.5034 109.68788 138.51453 C 109.73242 138.5368 109.82135 138.58142 109.85634 138.65458 C 109.89133 138.72774 109.87257 138.82968 109.8026 138.8742 C 109.73263 138.91872 109.61186 138.906 109.53233 138.85508 C 109.4528 138.80416 109.41438 138.71518 109.43983 138.64837 C 109.46528 138.58157 109.55447 138.5368 109.59899 138.51453 C 109.62125 138.5034 109.63231 138.49799 109.64343 138.498 z M 107.20896 138.50781 C 107.23837 138.51125 107.23771 138.568 107.23531 138.79462 L 107.23583 138.79462 C 107.23283 139.0968 107.22535 139.70107 107.33712 140.13045 C 107.44845 140.55986 107.67774 140.81434 108.00219 140.9702 C 108.32664 141.12606 108.74665 141.18323 109.1029 141.15778 C 109.45915 141.13238 109.75167 141.02421 109.96796 140.89061 C 110.18426 140.75705 110.32435 140.59839 110.41341 140.32166 C 110.50251 140.04493 110.54058 139.65012 110.55966 139.37339 C 110.57876 139.09668 110.5786 138.93784 110.6072 138.83286 C 110.6358 138.72788 110.69322 138.67717 110.76636 138.70263 C 110.83956 138.72813 110.92857 138.82979 110.99219 138.99202 C 111.05579 139.15424 111.09376 139.37672 111.10329 139.59302 C 111.11329 139.80932 111.09311 140.01918 111.02991 140.25138 C 110.96631 140.48358 110.85835 140.73808 110.67386 140.9671 C 110.48937 141.19612 110.22839 141.39988 109.98347 141.53347 C 109.73854 141.66706 109.50998 141.73076 109.2078 141.7562 C 108.90562 141.7816 108.53027 141.76866 108.22492 141.72416 C 107.91956 141.67966 107.68372 141.60315 107.46424 141.46319 C 107.24477 141.32323 107.04136 141.12002 106.86324 140.91645 C 106.68511 140.71288 106.53261 140.50919 106.44673 140.24518 C 106.36083 139.98117 106.34188 139.65682 106.38007 139.42145 C 106.41827 139.18607 106.51338 139.03935 106.59608 138.92484 C 106.67878 138.81033 106.74897 138.72809 106.85394 138.66129 C 106.9589 138.59449 107.09868 138.54359 107.16865 138.51815 C 107.18615 138.51177 107.19915 138.50667 107.20896 138.50781 z M 108.58097 138.79772 C 108.75909 138.79772 108.92482 138.81664 109.03934 138.84526 C 109.15386 138.87389 109.21742 138.91226 109.24604 139.00132 C 109.27467 139.09039 109.2682 139.23048 109.23002 139.30363 C 109.19185 139.37679 109.12186 139.38284 109.08688 139.41784 C 109.0519 139.45283 109.05187 139.51649 108.98508 139.5801 C 108.91828 139.64371 108.7846 139.70777 108.61921 139.72686 C 108.45381 139.74595 108.25687 139.72027 108.11691 139.65348 C 107.97696 139.58669 107.89383 139.47829 107.88747 139.33515 C 107.88111 139.19202 107.95118 139.01391 107.98617 138.92484 C 108.02116 138.83578 108.0215 138.83619 108.11691 138.82666 C 108.21233 138.81713 108.40284 138.79772 108.58097 138.79772 z " /></g></svg>
